<svg width="456" height="116" viewBox="0 0 456 116" fill="none" xmlns="http://www.w3.org/2000/svg">
<path fill-rule="evenodd" clip-rule="evenodd" d="M40.1871 113.495C35.4488 113.496 31.0703 110.968 28.7012 106.864L4.29219 64.5864C1.92285 60.483 1.92272 55.4272 4.29219 51.3236L28.7012 9.04594C31.0701 4.94236 35.4486 2.41431 40.1871 2.41455L64.5955 2.41579L64.5968 2.4158L89.0052 2.41455C93.7434 2.41432 98.122 4.94214 100.491 9.04594L115.793 35.5527C117.696 38.8494 116.566 43.0648 113.27 44.9679L102.536 51.1642C99.2394 53.0673 95.0241 51.9376 93.121 48.6409L84.0352 32.902C82.4961 30.2359 79.6516 28.5936 76.5732 28.5938L64.5961 28.5944L64.5955 28.5944L52.6188 28.5938C49.5406 28.5936 46.6961 30.2358 45.157 32.9016L33.1797 53.6469C31.6406 56.3127 31.6406 59.5972 33.1799 62.2629L39.1688 72.6347L39.1691 72.6353L39.1694 72.6359L45.1571 83.008C46.6961 85.6741 49.5407 87.3164 52.6191 87.3162L64.5955 87.3156H64.5961H64.5968L76.5732 87.3162C79.6516 87.3164 82.4961 85.6741 84.0352 83.008L93.121 67.2691C95.0241 63.9724 99.2394 62.8427 102.536 64.7458L113.27 70.9421C116.566 72.8452 117.696 77.0605 115.793 80.3573L100.491 106.864C98.1221 110.968 93.7437 113.496 89.0052 113.495L40.1871 113.495Z" stroke="#F6FBFF" stroke-width="3.30177" stroke-linecap="square"/>
<path d="M52.4597 28.5952C52.5128 28.5942 52.5659 28.5938 52.6192 28.5938L76.5735 28.5938C79.6519 28.5936 82.4965 30.2359 84.0355 32.902L93.1213 48.6408C95.0245 51.9376 99.2398 53.0673 102.537 51.1641L113.27 44.9679C116.567 43.0648 117.696 38.8494 115.793 35.5527L100.491 9.04594C98.1223 4.94214 93.7438 2.41432 89.0055 2.41455L64.5971 2.4158L64.5958 2.41579L40.1875 2.41455C35.4489 2.41431 31.0705 4.94236 28.7016 9.04594L11.9019 38.1439C18.7065 30.1739 28.3737 28.5899 32.6412 28.5952H52.4597Z" stroke="#F6FBFF" stroke-width="3.30177"/>
<path d="M58.316 72.2028C57.0847 72.2028 55.9468 71.5459 55.3312 70.4795L52.1914 65.0405L49.051 59.6019C48.4353 58.5355 48.4353 57.2217 49.051 56.1553L52.1914 50.7167L55.3312 45.2777C55.9468 44.2113 57.0847 43.5543 58.316 43.5544L64.5962 43.5547L70.8764 43.5544C72.1078 43.5543 73.2456 44.2113 73.8612 45.2777L77.0011 50.7167L80.1415 56.1553C80.7572 57.2217 80.7572 58.5355 80.1415 59.6019L77.0011 65.0405L73.8612 70.4795C73.2456 71.5459 72.1078 72.2028 70.8764 72.2028L64.5962 72.2025L58.316 72.2028Z" fill="#F6FBFF"/>
<path d="M88.4668 113.496H74.0379C62.4365 112.077 54.5638 100.752 51.961 94.9029L45.1572 83.0081C46.6963 85.6742 49.5409 87.3165 52.6192 87.3163L76.5733 87.3163C79.6517 87.3165 82.4963 85.6742 84.0353 83.0081L93.1211 67.2692C95.0243 63.9725 99.2396 62.8428 102.536 64.7459L113.27 70.9422C116.567 72.8453 117.696 77.0606 115.793 80.3574L100.491 106.864C98.3169 110.631 94.4497 113.07 90.1651 113.445C89.6254 113.463 89.0594 113.479 88.4668 113.496Z" stroke="#F6FBFF" stroke-width="3.30177"/>
<path d="M443.516 46.3453V43.0127C443.516 42.386 444.024 41.878 444.651 41.878H454.47C455.096 41.878 455.604 42.386 455.604 43.0127V86.5546C455.604 87.1813 455.096 87.6893 454.47 87.6893H444.651C444.024 87.6893 443.516 87.1813 443.516 86.5546V82.6089C439.575 85.7622 434.494 87.6893 429.064 87.6893C416.363 87.6893 405.939 77.2657 405.939 64.3895C405.939 51.6885 416.363 41.2649 429.064 41.2649C434.494 41.2649 439.575 43.1919 443.516 46.3453ZM418.64 64.4771C418.64 71.2218 424.071 76.5649 430.728 76.5649C437.473 76.5649 442.816 71.2218 442.816 64.4771C442.816 57.82 437.473 52.4768 430.728 52.4768C424.071 52.4768 418.64 57.82 418.64 64.4771Z" fill="#F6FBFF"/>
<path d="M379.319 73.061V33.2897C379.319 32.663 379.827 32.155 380.454 32.155H390.273C390.899 32.155 391.407 32.663 391.407 33.2897V41.8779H400.258C400.885 41.8779 401.393 42.3859 401.393 43.0125V51.2544C401.393 51.8811 400.885 52.3891 400.258 52.3891H391.407V72.0975C391.495 75.9516 393.772 77.8787 397.451 77.8787H401.484C402.111 77.8787 402.619 78.3867 402.619 79.0133V87.064C402.619 87.662 402.155 88.1582 401.558 88.19C397.876 88.3858 394.204 88.3438 391.407 87.8643C384.487 86.9008 379.407 81.5576 379.319 73.061Z" fill="#F6FBFF"/>
<path d="M336.343 101.27C336.343 101.897 335.835 102.405 335.208 102.405H325.39C324.763 102.405 324.255 101.897 324.255 101.27V43.0127C324.255 42.386 324.763 41.878 325.39 41.878H335.208C335.835 41.878 336.343 42.386 336.343 43.0127V46.3453C340.372 43.1919 345.365 41.2649 350.883 41.2649C363.584 41.2649 374.008 51.6885 374.008 64.3895C374.008 77.2657 363.584 87.6893 350.883 87.6893C345.365 87.6893 340.372 85.7622 336.343 82.6089V101.27ZM361.219 64.4771C361.219 57.82 355.788 52.4768 349.131 52.4768C342.474 52.4768 337.131 57.82 337.131 64.4771C337.131 71.2218 342.474 76.5649 349.131 76.5649C355.788 76.5649 361.219 71.2218 361.219 64.4771Z" fill="#F6FBFF"/>
<path d="M281.278 101.27C281.278 101.897 280.77 102.405 280.144 102.405H270.325C269.698 102.405 269.19 101.897 269.19 101.27V43.0127C269.19 42.386 269.698 41.878 270.325 41.878H280.144C280.77 41.878 281.278 42.386 281.278 43.0127V46.3453C285.308 43.1919 290.3 41.2649 295.819 41.2649C308.52 41.2649 318.943 51.6885 318.943 64.3895C318.943 77.2657 308.52 87.6893 295.819 87.6893C290.3 87.6893 285.308 85.7622 281.278 82.6089V101.27ZM306.155 64.4771C306.155 57.82 300.724 52.4768 294.067 52.4768C287.41 52.4768 282.067 57.82 282.067 64.4771C282.067 71.2218 287.41 76.5649 294.067 76.5649C300.724 76.5649 306.155 71.2218 306.155 64.4771Z" fill="#F6FBFF"/>
<path d="M249.799 46.3453V43.0127C249.799 42.386 250.307 41.878 250.934 41.878H260.752C261.379 41.878 261.887 42.386 261.887 43.0127V86.5546C261.887 87.1813 261.379 87.6893 260.752 87.6893H250.934C250.307 87.6893 249.799 87.1813 249.799 86.5546V82.6089C245.857 85.7622 240.777 87.6893 235.346 87.6893C222.645 87.6893 212.222 77.2657 212.222 64.3895C212.222 51.6885 222.645 41.2649 235.346 41.2649C240.777 41.2649 245.857 43.1919 249.799 46.3453ZM224.923 64.4771C224.923 71.2218 230.353 76.5649 237.011 76.5649C243.755 76.5649 249.098 71.2218 249.098 64.4771C249.098 57.82 243.755 52.4768 237.011 52.4768C230.353 52.4768 224.923 57.82 224.923 64.4771Z" fill="#F6FBFF"/>
<path d="M194.458 66.6635C194.666 66.2926 195.053 66.0535 195.478 66.0535H206.082C206.832 66.0535 207.376 66.7691 207.141 67.4812C203.096 79.706 191.547 88.4774 177.968 88.4774C160.799 88.4774 146.872 74.6376 146.872 57.4694C146.872 40.3011 160.799 26.3738 177.968 26.3738C191.547 26.3738 203.096 35.1451 207.141 47.3699C207.376 48.082 206.832 48.7976 206.082 48.7976H195.57C195.143 48.7976 194.754 48.5559 194.547 48.1819C191.292 42.3026 185.08 38.374 177.968 38.374C167.456 38.374 158.96 46.8706 158.96 57.3818C158.96 67.8054 167.456 76.3895 177.968 76.3895C185.079 76.3895 191.208 72.4622 194.458 66.6635Z" fill="#F6FBFF"/>
</svg>
