<svg width="456" height="116" viewBox="0 0 456 116" fill="none" xmlns="http://www.w3.org/2000/svg">
<path fill-rule="evenodd" clip-rule="evenodd" d="M39.8014 113.495C35.0631 113.496 30.6845 110.968 28.3155 106.864L3.90645 64.5864C1.53711 60.483 1.53698 55.4272 3.90645 51.3236L28.3155 9.04594C30.6844 4.94236 35.0628 2.41431 39.8014 2.41455L64.2097 2.41579L64.2111 2.4158L88.6194 2.41455C93.3577 2.41432 97.7363 4.94214 100.105 9.04594L115.407 35.5527C117.31 38.8494 116.181 43.0648 112.884 44.9679L102.15 51.1642C98.8537 53.0673 94.6384 51.9376 92.7352 48.6409L83.6494 32.902C82.1104 30.2359 79.2658 28.5936 76.1874 28.5938L64.2104 28.5944L64.2097 28.5944L52.2331 28.5938C49.1548 28.5936 46.3104 30.2358 44.7713 32.9016L32.7939 53.6469C31.2548 56.3127 31.2549 59.5972 32.7942 62.2629L38.783 72.6347L38.7834 72.6353L38.7837 72.6359L44.7713 83.008C46.3104 85.6741 49.155 87.3164 52.2333 87.3162L64.2097 87.3156H64.2104H64.2111L76.1874 87.3162C79.2658 87.3164 82.1104 85.6741 83.6494 83.008L92.7352 67.2691C94.6384 63.9724 98.8537 62.8427 102.15 64.7458L112.884 70.9421C116.181 72.8452 117.31 77.0605 115.407 80.3573L100.105 106.864C97.7364 110.968 93.3579 113.496 88.6194 113.495L39.8014 113.495Z" stroke="#0B1521" stroke-width="3.30177" stroke-linecap="square"/>
<path d="M52.0735 28.5952C52.1265 28.5942 52.1797 28.5938 52.2329 28.5938L76.1873 28.5938C79.2657 28.5936 82.1102 30.2359 83.6493 32.902L92.7351 48.6408C94.6382 51.9376 98.8536 53.0673 102.15 51.1641L112.884 44.9679C116.18 43.0648 117.31 38.8494 115.407 35.5527L100.105 9.04594C97.7361 4.94214 93.3575 2.41432 88.6193 2.41455L64.2109 2.4158L64.2096 2.41579L39.8012 2.41455C35.0627 2.41431 30.6843 4.94236 28.3153 9.04594L11.5156 38.1439C18.3203 30.1739 27.9875 28.5899 32.2549 28.5952H52.0735Z" stroke="#0B1521" stroke-width="3.30177"/>
<path d="M57.9303 72.2028C56.6989 72.2028 55.5611 71.5459 54.9455 70.4795L51.8057 65.0405L48.6653 59.6019C48.0495 58.5355 48.0495 57.2217 48.6653 56.1553L51.8057 50.7167L54.9455 45.2777C55.5611 44.2113 56.6989 43.5543 57.9303 43.5544L64.2105 43.5547L70.4907 43.5544C71.7221 43.5543 72.8599 44.2113 73.4755 45.2777L76.6153 50.7167L79.7557 56.1553C80.3714 57.2217 80.3714 58.5355 79.7557 59.6019L76.6153 65.0405L73.4755 70.4795C72.8599 71.5459 71.722 72.2028 70.4907 72.2028L64.2105 72.2025L57.9303 72.2028Z" fill="#0B1521"/>
<path d="M88.0806 113.496H73.6516C62.0502 112.077 54.1776 100.752 51.5748 94.9029L44.771 83.0081C46.3101 85.6742 49.1546 87.3165 52.233 87.3163L76.1871 87.3163C79.2655 87.3165 82.11 85.6742 83.6491 83.0081L92.7349 67.2692C94.638 63.9725 98.8534 62.8428 102.15 64.7459L112.884 70.9422C116.18 72.8453 117.31 77.0606 115.407 80.3574L100.105 106.864C97.9307 110.631 94.0635 113.07 89.7789 113.445C89.2392 113.463 88.6732 113.479 88.0806 113.496Z" stroke="#0B1521" stroke-width="3.30177"/>
<path d="M443.13 46.3453V43.0127C443.13 42.386 443.638 41.878 444.265 41.878H454.084C454.71 41.878 455.218 42.386 455.218 43.0127V86.5546C455.218 87.1813 454.71 87.6893 454.084 87.6893H444.265C443.638 87.6893 443.13 87.1813 443.13 86.5546V82.6089C439.189 85.7622 434.108 87.6893 428.678 87.6893C415.977 87.6893 405.553 77.2657 405.553 64.3895C405.553 51.6885 415.977 41.2649 428.678 41.2649C434.108 41.2649 439.189 43.1919 443.13 46.3453ZM418.254 64.4771C418.254 71.2218 423.685 76.5649 430.342 76.5649C437.087 76.5649 442.43 71.2218 442.43 64.4771C442.43 57.82 437.087 52.4768 430.342 52.4768C423.685 52.4768 418.254 57.82 418.254 64.4771Z" fill="#0B1521"/>
<path d="M378.933 73.061V33.2897C378.933 32.663 379.441 32.155 380.068 32.155H389.887C390.513 32.155 391.021 32.663 391.021 33.2897V41.8779H399.872C400.499 41.8779 401.007 42.3859 401.007 43.0125V51.2544C401.007 51.8811 400.499 52.3891 399.872 52.3891H391.021V72.0975C391.109 75.9516 393.386 77.8787 397.065 77.8787H401.099C401.725 77.8787 402.233 78.3867 402.233 79.0133V87.064C402.233 87.662 401.769 88.1582 401.172 88.19C397.49 88.3858 393.818 88.3438 391.021 87.8643C384.101 86.9008 379.021 81.5576 378.933 73.061Z" fill="#0B1521"/>
<path d="M335.957 101.27C335.957 101.897 335.449 102.405 334.822 102.405H325.004C324.377 102.405 323.869 101.897 323.869 101.27V43.0127C323.869 42.386 324.377 41.878 325.004 41.878H334.822C335.449 41.878 335.957 42.386 335.957 43.0127V46.3453C339.986 43.1919 344.979 41.2649 350.497 41.2649C363.198 41.2649 373.622 51.6885 373.622 64.3895C373.622 77.2657 363.198 87.6893 350.497 87.6893C344.979 87.6893 339.986 85.7622 335.957 82.6089V101.27ZM360.833 64.4771C360.833 57.82 355.403 52.4768 348.746 52.4768C342.089 52.4768 336.745 57.82 336.745 64.4771C336.745 71.2218 342.089 76.5649 348.746 76.5649C355.403 76.5649 360.833 71.2218 360.833 64.4771Z" fill="#0B1521"/>
<path d="M280.892 101.27C280.892 101.897 280.384 102.405 279.757 102.405H269.939C269.312 102.405 268.804 101.897 268.804 101.27V43.0127C268.804 42.386 269.312 41.878 269.939 41.878H279.757C280.384 41.878 280.892 42.386 280.892 43.0127V46.3453C284.921 43.1919 289.914 41.2649 295.433 41.2649C308.134 41.2649 318.557 51.6885 318.557 64.3895C318.557 77.2657 308.134 87.6893 295.433 87.6893C289.914 87.6893 284.921 85.7622 280.892 82.6089V101.27ZM305.769 64.4771C305.769 57.82 300.338 52.4768 293.681 52.4768C287.024 52.4768 281.68 57.82 281.68 64.4771C281.68 71.2218 287.024 76.5649 293.681 76.5649C300.338 76.5649 305.769 71.2218 305.769 64.4771Z" fill="#0B1521"/>
<path d="M249.413 46.3453V43.0127C249.413 42.386 249.921 41.878 250.548 41.878H260.367C260.993 41.878 261.501 42.386 261.501 43.0127V86.5546C261.501 87.1813 260.993 87.6893 260.367 87.6893H250.548C249.921 87.6893 249.413 87.1813 249.413 86.5546V82.6089C245.472 85.7622 240.391 87.6893 234.961 87.6893C222.26 87.6893 211.836 77.2657 211.836 64.3895C211.836 51.6885 222.26 41.2649 234.961 41.2649C240.391 41.2649 245.472 43.1919 249.413 46.3453ZM224.537 64.4771C224.537 71.2218 229.968 76.5649 236.625 76.5649C243.369 76.5649 248.713 71.2218 248.713 64.4771C248.713 57.82 243.369 52.4768 236.625 52.4768C229.968 52.4768 224.537 57.82 224.537 64.4771Z" fill="#0B1521"/>
<path d="M194.072 66.6635C194.28 66.2926 194.667 66.0535 195.092 66.0535H205.697C206.447 66.0535 206.99 66.7691 206.755 67.4812C202.71 79.706 191.161 88.4774 177.582 88.4774C160.414 88.4774 146.486 74.6376 146.486 57.4694C146.486 40.3011 160.414 26.3738 177.582 26.3738C191.161 26.3738 202.71 35.1451 206.755 47.3699C206.99 48.082 206.447 48.7976 205.697 48.7976H195.184C194.757 48.7976 194.368 48.5559 194.161 48.1819C190.906 42.3026 184.694 38.374 177.582 38.374C167.071 38.374 158.574 46.8706 158.574 57.3818C158.574 67.8054 167.071 76.3895 177.582 76.3895C184.693 76.3895 190.822 72.4622 194.072 66.6635Z" fill="#0B1521"/>
</svg>
