<svg width="668" height="168" viewBox="0 0 668 168" fill="none" xmlns="http://www.w3.org/2000/svg">
<path fill-rule="evenodd" clip-rule="evenodd" d="M56.8722 167.633C49.7611 167.633 43.1899 163.839 39.6344 157.681L3.00192 94.2311C-0.553933 88.0729 -0.554121 80.4852 3.00193 74.3267L39.6344 10.8773C43.1897 4.71872 49.7607 0.92469 56.8722 0.925049L93.5037 0.926915L93.5057 0.926918L130.137 0.925051C137.248 0.924697 143.82 4.7184 147.375 10.8773L170.34 50.6581C173.196 55.6057 171.5 61.932 166.553 64.7882L150.444 74.0874C145.497 76.9436 139.17 75.2481 136.314 70.3005L122.678 46.6799C120.369 42.6787 116.1 40.214 111.48 40.2142L93.5047 40.2151L93.5037 40.2151L75.5294 40.2142C70.9097 40.214 66.6408 42.6785 64.3309 46.6793L46.3556 77.8135C44.0458 81.8143 44.0459 86.7435 46.3559 90.7442L55.3439 106.31L55.3444 106.311L55.3449 106.312L64.331 121.878C66.6408 125.879 70.9099 128.344 75.5299 128.344L93.5037 128.343H93.5047H93.5057L111.48 128.344C116.1 128.344 120.369 125.879 122.678 121.878L136.314 98.2574C139.17 93.3097 145.497 91.6143 150.444 94.4704L166.553 103.77C171.501 106.626 173.196 112.952 170.34 117.9L147.375 157.681C143.82 163.839 137.249 167.633 130.137 167.633L56.8722 167.633Z" fill="url(#paint0_linear_9611_7618)"/>
<path d="M75.2897 40.2164C75.3694 40.215 75.4491 40.2142 75.529 40.2142L111.479 40.2142C116.099 40.214 120.368 42.6787 122.678 46.6799L136.314 70.3004C139.17 75.2481 145.496 76.9435 150.444 74.0874L166.552 64.7882C171.5 61.932 173.196 55.6057 170.339 50.658L147.375 10.8773C143.819 4.7184 137.248 0.924697 130.137 0.925051L93.5053 0.926918L93.5033 0.926915L56.8718 0.925049C49.7603 0.92469 43.1893 4.71872 39.634 10.8773L14.4214 54.5469C24.6337 42.5857 39.142 40.2085 45.5465 40.2164L75.2897 40.2164Z" fill="url(#paint1_linear_9611_7618)"/>
<path d="M129.329 167.634H107.674C90.2629 165.505 78.4478 148.508 74.5415 139.73L64.3306 121.879C66.6403 125.88 70.9094 128.345 75.5294 128.344L111.479 128.344C116.099 128.345 120.368 125.88 122.678 121.879L136.314 98.2582C139.17 93.3106 145.496 91.6151 150.444 94.4713L166.552 103.77C171.5 106.627 173.195 112.953 170.339 117.901L147.375 157.681C144.111 163.334 138.308 166.995 131.877 167.558C131.067 167.584 130.218 167.61 129.329 167.634Z" fill="url(#paint2_linear_9611_7618)"/>
<path d="M84.0782 105.922C82.2302 105.923 80.5226 104.937 79.5987 103.336L74.8865 95.1735L70.1735 87.0113C69.2494 85.4109 69.2494 83.4391 70.1735 81.8388L74.8865 73.6765L79.5987 65.5138C80.5226 63.9134 82.2302 62.9275 84.0782 62.9276L93.5034 62.9281L102.929 62.9276C104.777 62.9275 106.484 63.9134 107.408 65.5138L112.12 73.6765L116.833 81.8388C117.757 83.4391 117.757 85.4109 116.833 87.0113L112.12 95.1735L107.408 103.336C106.484 104.937 104.777 105.923 102.929 105.922L93.5034 105.922L84.0782 105.922Z" fill="#0B1521"/>
<path d="M649.523 66.8582V61.8567C649.523 60.9162 650.286 60.1539 651.226 60.1539H665.962C666.902 60.1539 667.665 60.9162 667.665 61.8567V127.203C667.665 128.144 666.902 128.906 665.962 128.906H651.226C650.286 128.906 649.523 128.144 649.523 127.203V121.282C643.608 126.014 635.983 128.906 627.833 128.906C608.771 128.906 593.128 113.263 593.128 93.9385C593.128 74.8771 608.771 59.2336 627.833 59.2336C635.983 59.2336 643.608 62.1257 649.523 66.8582ZM612.189 94.07C612.189 104.192 620.34 112.211 630.331 112.211C640.453 112.211 648.472 104.192 648.472 94.07C648.472 84.0792 640.453 76.0603 630.331 76.0603C620.34 76.0603 612.189 84.0792 612.189 94.07Z" fill="#0B1521"/>
<path d="M553.178 106.953V47.2649C553.178 46.3244 553.94 45.562 554.881 45.562H569.616C570.557 45.562 571.319 46.3244 571.319 47.2649V60.1538H584.602C585.543 60.1538 586.305 60.9162 586.305 61.8567V74.2259C586.305 75.1664 585.543 75.9288 584.602 75.9288H571.319V105.507C571.45 111.291 574.868 114.183 580.39 114.183H586.443C587.383 114.183 588.146 114.945 588.146 115.886V127.968C588.146 128.866 587.449 129.61 586.553 129.658C581.027 129.952 575.516 129.889 571.319 129.169C560.934 127.723 553.309 119.704 553.178 106.953Z" fill="#0B1521"/>
<path d="M488.679 149.288C488.679 150.229 487.917 150.991 486.976 150.991H472.241C471.3 150.991 470.538 150.229 470.538 149.288V61.8567C470.538 60.9162 471.3 60.1539 472.241 60.1539H486.976C487.917 60.1539 488.679 60.9162 488.679 61.8567V66.8582C494.726 62.1257 502.219 59.2336 510.501 59.2336C529.563 59.2336 545.206 74.8771 545.206 93.9385C545.206 113.263 529.563 128.906 510.501 128.906C502.219 128.906 494.726 126.014 488.679 121.282V149.288ZM526.013 94.07C526.013 84.0792 517.863 76.0603 507.872 76.0603C497.881 76.0603 489.862 84.0792 489.862 94.07C489.862 104.192 497.881 112.211 507.872 112.211C517.863 112.211 526.013 104.192 526.013 94.07Z" fill="#0B1521"/>
<path d="M406.04 149.288C406.04 150.229 405.277 150.991 404.337 150.991H389.601C388.661 150.991 387.898 150.229 387.898 149.288V61.8567C387.898 60.9162 388.661 60.1539 389.601 60.1539H404.337C405.277 60.1539 406.04 60.9162 406.04 61.8567V66.8582C412.087 62.1257 419.58 59.2336 427.862 59.2336C446.923 59.2336 462.567 74.8771 462.567 93.9385C462.567 113.263 446.923 128.906 427.862 128.906C419.58 128.906 412.087 126.014 406.04 121.282V149.288ZM443.374 94.07C443.374 84.0792 435.223 76.0603 425.232 76.0603C415.242 76.0603 407.223 84.0792 407.223 94.07C407.223 104.192 415.242 112.211 425.232 112.211C435.223 112.211 443.374 104.192 443.374 94.07Z" fill="#0B1521"/>
<path d="M358.797 66.8582V61.8567C358.797 60.9162 359.559 60.1539 360.5 60.1539H375.235C376.176 60.1539 376.938 60.9162 376.938 61.8567V127.203C376.938 128.144 376.176 128.906 375.235 128.906H360.5C359.559 128.906 358.797 128.144 358.797 127.203V121.282C352.881 126.014 345.257 128.906 337.106 128.906C318.045 128.906 302.401 113.263 302.401 93.9385C302.401 74.8771 318.045 59.2336 337.106 59.2336C345.257 59.2336 352.881 62.1257 358.797 66.8582ZM321.463 94.07C321.463 104.192 329.613 112.211 339.604 112.211C349.726 112.211 357.745 104.192 357.745 94.07C357.745 84.0792 349.726 76.0603 339.604 76.0603C329.613 76.0603 321.463 84.0792 321.463 94.07Z" fill="#0B1521"/>
<path d="M275.029 97.3509C275.34 96.7943 275.921 96.4354 276.559 96.4354H292.474C293.6 96.4354 294.416 97.5094 294.062 98.5781C287.993 116.925 270.66 130.089 250.28 130.089C224.515 130.089 203.613 109.318 203.613 83.5526C203.613 57.7868 224.515 36.885 250.28 36.885C270.66 36.885 287.993 50.0489 294.062 68.3956C294.416 69.4643 293.6 70.5382 292.474 70.5382H276.698C276.056 70.5382 275.473 70.1754 275.162 69.6142C270.277 60.7907 260.954 54.8947 250.28 54.8947C234.505 54.8947 221.754 67.6462 221.754 83.4211C221.754 99.0646 234.505 111.947 250.28 111.947C260.953 111.947 270.151 106.053 275.029 97.3509Z" fill="#0B1521"/>
<defs>
<linearGradient id="paint0_linear_9611_7618" x1="86.031" y1="0.925049" x2="86.031" y2="167.633" gradientUnits="userSpaceOnUse">
<stop stop-color="#0A6C8B"/>
<stop offset="1" stop-color="#46C0E6"/>
</linearGradient>
<linearGradient id="paint1_linear_9611_7618" x1="35.2501" y1="18.3144" x2="166.403" y2="58.3889" gradientUnits="userSpaceOnUse">
<stop stop-color="#46E6A3"/>
<stop offset="0.475" stop-color="#33C789"/>
<stop offset="1" stop-color="#1EA56D"/>
</linearGradient>
<linearGradient id="paint2_linear_9611_7618" x1="161.545" y1="93.084" x2="95.9689" y2="159.183" gradientUnits="userSpaceOnUse">
<stop stop-color="#BBA4FF"/>
<stop offset="1" stop-color="#7159B2"/>
</linearGradient>
</defs>
</svg>
