<svg width="668" height="168" viewBox="0 0 668 168" fill="none" xmlns="http://www.w3.org/2000/svg">
<path fill-rule="evenodd" clip-rule="evenodd" d="M56.8727 167.633C49.7616 167.633 43.1903 163.839 39.6349 157.681L3.00241 94.2311C-0.553445 88.0729 -0.553632 80.4852 3.00241 74.3267L39.6349 10.8773C43.1902 4.71872 49.7612 0.92469 56.8727 0.925049L93.5042 0.926915L93.5062 0.926918L130.138 0.925051C137.249 0.924697 143.82 4.7184 147.376 10.8773L170.34 50.6581C173.196 55.6057 171.501 61.932 166.553 64.7882L150.445 74.0874C145.497 76.9436 139.171 75.2481 136.315 70.3005L122.679 46.6799C120.369 42.6787 116.1 40.214 111.48 40.2142L93.5052 40.2151L93.5042 40.2151L75.5299 40.2142C70.9102 40.214 66.6413 42.6785 64.3314 46.6793L46.3561 77.8135C44.0462 81.8143 44.0464 86.7435 46.3564 90.7442L55.3444 106.31L55.3449 106.311L55.3454 106.312L64.3315 121.878C66.6413 125.879 70.9104 128.344 75.5303 128.344L93.5042 128.343H93.5052H93.5062L111.48 128.344C116.1 128.344 120.369 125.879 122.679 121.878L136.315 98.2574C139.171 93.3097 145.497 91.6143 150.445 94.4704L166.553 103.77C171.501 106.626 173.196 112.952 170.34 117.9L147.376 157.681C143.82 163.839 137.249 167.633 130.138 167.633L56.8727 167.633Z" fill="url(#paint0_linear_9611_7633)"/>
<path d="M75.2904 40.2164C75.3701 40.215 75.4499 40.2142 75.5297 40.2142L111.48 40.2142C116.1 40.214 120.369 42.6787 122.679 46.6799L136.314 70.3004C139.171 75.2481 145.497 76.9435 150.445 74.0874L166.553 64.7882C171.501 61.932 173.196 55.6057 170.34 50.658L147.375 10.8773C143.82 4.7184 137.249 0.924697 130.138 0.925051L93.506 0.926918L93.5041 0.926915L56.8725 0.925049C49.7611 0.92469 43.19 4.71872 39.6348 10.8773L14.4221 54.5469C24.6344 42.5857 39.1427 40.2085 45.5472 40.2164L75.2904 40.2164Z" fill="url(#paint1_linear_9611_7633)"/>
<path d="M84.0785 105.777C82.2305 105.777 80.5228 104.791 79.5989 103.19L74.8867 95.0277L70.1737 86.8655C69.2497 85.2652 69.2497 83.2934 70.1737 81.693L74.8867 73.5308L79.5989 65.3681C80.5228 63.7676 82.2305 62.7817 84.0785 62.7818L93.5037 62.7823L102.929 62.7818C104.777 62.7817 106.484 63.7676 107.408 65.3681L112.121 73.5308L116.834 81.693C117.758 83.2934 117.758 85.2652 116.834 86.8655L112.121 95.0277L107.408 103.19C106.484 104.791 104.777 105.777 102.929 105.777L93.5037 105.776L84.0785 105.777Z" fill="#F6FBFF"/>
<path d="M129.329 167.634H107.675C90.2636 165.505 78.4485 148.508 74.5422 139.73L64.3313 121.879C66.6411 125.88 70.9101 128.345 75.5301 128.344L111.48 128.344C116.1 128.345 120.369 125.88 122.679 121.879L136.314 98.2582C139.171 93.3106 145.497 91.6151 150.445 94.4713L166.553 103.77C171.501 106.627 173.196 112.953 170.34 117.901L147.375 157.681C144.112 163.334 138.308 166.995 131.878 167.558C131.068 167.584 130.219 167.61 129.329 167.634Z" fill="url(#paint2_linear_9611_7633)"/>
<path d="M649.524 66.8582V61.8567C649.524 60.9162 650.286 60.1539 651.226 60.1539H665.962C666.902 60.1539 667.665 60.9162 667.665 61.8567V127.203C667.665 128.144 666.902 128.906 665.962 128.906H651.226C650.286 128.906 649.524 128.144 649.524 127.203V121.282C643.608 126.014 635.983 128.906 627.833 128.906C608.772 128.906 593.128 113.263 593.128 93.9385C593.128 74.8771 608.772 59.2336 627.833 59.2336C635.983 59.2336 643.608 62.1257 649.524 66.8582ZM612.19 94.07C612.19 104.192 620.34 112.211 630.331 112.211C640.453 112.211 648.472 104.192 648.472 94.07C648.472 84.0792 640.453 76.0603 630.331 76.0603C620.34 76.0603 612.19 84.0792 612.19 94.07Z" fill="#F6FBFF"/>
<path d="M553.178 106.953V47.2649C553.178 46.3244 553.941 45.562 554.881 45.562H569.617C570.557 45.562 571.319 46.3244 571.319 47.2649V60.1538H584.603C585.543 60.1538 586.306 60.9162 586.306 61.8567V74.2259C586.306 75.1664 585.543 75.9288 584.603 75.9288H571.319V105.507C571.451 111.291 574.869 114.183 580.39 114.183H586.443C587.384 114.183 588.146 114.945 588.146 115.886V127.968C588.146 128.866 587.45 129.61 586.553 129.658C581.028 129.952 575.517 129.889 571.319 129.169C560.934 127.723 553.31 119.704 553.178 106.953Z" fill="#F6FBFF"/>
<path d="M488.68 149.288C488.68 150.229 487.917 150.991 486.977 150.991H472.241C471.301 150.991 470.539 150.229 470.539 149.288V61.8567C470.539 60.9162 471.301 60.1539 472.241 60.1539H486.977C487.917 60.1539 488.68 60.9162 488.68 61.8567V66.8582C494.727 62.1257 502.22 59.2336 510.502 59.2336C529.563 59.2336 545.207 74.8771 545.207 93.9385C545.207 113.263 529.563 128.906 510.502 128.906C502.22 128.906 494.727 126.014 488.68 121.282V149.288ZM526.014 94.07C526.014 84.0792 517.863 76.0603 507.873 76.0603C497.882 76.0603 489.863 84.0792 489.863 94.07C489.863 104.192 497.882 112.211 507.873 112.211C517.863 112.211 526.014 104.192 526.014 94.07Z" fill="#F6FBFF"/>
<path d="M406.04 149.288C406.04 150.229 405.278 150.991 404.338 150.991H389.602C388.662 150.991 387.899 150.229 387.899 149.288V61.8567C387.899 60.9162 388.662 60.1539 389.602 60.1539H404.338C405.278 60.1539 406.04 60.9162 406.04 61.8567V66.8582C412.087 62.1257 419.581 59.2336 427.862 59.2336C446.924 59.2336 462.567 74.8771 462.567 93.9385C462.567 113.263 446.924 128.906 427.862 128.906C419.581 128.906 412.087 126.014 406.04 121.282V149.288ZM443.374 94.07C443.374 84.0792 435.224 76.0603 425.233 76.0603C415.242 76.0603 407.223 84.0792 407.223 94.07C407.223 104.192 415.242 112.211 425.233 112.211C435.224 112.211 443.374 104.192 443.374 94.07Z" fill="#F6FBFF"/>
<path d="M358.797 66.8582V61.8567C358.797 60.9162 359.56 60.1539 360.5 60.1539H375.236C376.176 60.1539 376.938 60.9162 376.938 61.8567V127.203C376.938 128.144 376.176 128.906 375.236 128.906H360.5C359.56 128.906 358.797 128.144 358.797 127.203V121.282C352.882 126.014 345.257 128.906 337.107 128.906C318.045 128.906 302.402 113.263 302.402 93.9385C302.402 74.8771 318.045 59.2336 337.107 59.2336C345.257 59.2336 352.882 62.1257 358.797 66.8582ZM321.463 94.07C321.463 104.192 329.614 112.211 339.604 112.211C349.727 112.211 357.746 104.192 357.746 94.07C357.746 84.0792 349.727 76.0603 339.604 76.0603C329.614 76.0603 321.463 84.0792 321.463 94.07Z" fill="#F6FBFF"/>
<path d="M275.029 97.3509C275.341 96.7943 275.922 96.4354 276.56 96.4354H292.475C293.6 96.4354 294.416 97.5094 294.063 98.5781C287.993 116.925 270.66 130.089 250.281 130.089C224.515 130.089 203.613 109.318 203.613 83.5526C203.613 57.7868 224.515 36.885 250.281 36.885C270.66 36.885 287.993 50.0489 294.063 68.3956C294.416 69.4643 293.6 70.5382 292.475 70.5382H276.698C276.056 70.5382 275.473 70.1754 275.162 69.6142C270.277 60.7907 260.955 54.8947 250.281 54.8947C234.506 54.8947 221.754 67.6462 221.754 83.4211C221.754 99.0646 234.506 111.947 250.281 111.947C260.953 111.947 270.152 106.053 275.029 97.3509Z" fill="#F6FBFF"/>
<defs>
<linearGradient id="paint0_linear_9611_7633" x1="86.0315" y1="0.925049" x2="86.0315" y2="167.633" gradientUnits="userSpaceOnUse">
<stop stop-color="#0A6C8B"/>
<stop offset="1" stop-color="#46C0E6"/>
</linearGradient>
<linearGradient id="paint1_linear_9611_7633" x1="35.2508" y1="18.3144" x2="166.404" y2="58.3889" gradientUnits="userSpaceOnUse">
<stop stop-color="#46E6A3"/>
<stop offset="1" stop-color="#1EA56D"/>
</linearGradient>
<linearGradient id="paint2_linear_9611_7633" x1="161.546" y1="93.084" x2="95.9697" y2="159.183" gradientUnits="userSpaceOnUse">
<stop stop-color="#BBA4FF"/>
<stop offset="1" stop-color="#7159B2"/>
</linearGradient>
</defs>
</svg>
